<svg viewBox="0 0 220 285.7142857142857" xmlns="http://www.w3.org/2000/svg">
<circle cx="125" cy="12" r="1.2"/>
<circle cx="145" cy="80" r="1.2"/>
<circle cx="55" cy="20" r="1.2"/>
<circle cx="95" cy="45" r="1.2"/>
<circle cx="135" cy="51.5" r="1.2"/>
<circle cx="115" cy="12" r="1.2"/>
<circle cx="15" cy="26" r="1.2"/>
<circle cx="35" cy="24" r="1.2"/>
<circle cx="75" cy="36" r="1.2"/>
<circle cx="65" cy="34" r="1.2"/>
<circle cx="85" cy="32" r="1.2"/>
<circle cx="155" cy="34" r="1.2"/>
<circle cx="105" cy="36" r="1.2"/>
<circle cx="25" cy="24" r="1.2"/>
<circle cx="45" cy="22" r="1.2"/>
<circle cx="5" cy="22" r="1.2"/>
<circle cx="165" cy="41" r="1.2"/>
<path d="M115,12 L115,23.6 L120,23.6 L125,23.6 L125,12" fill="none" stroke="black" stroke-width="0.3"/>
<path d="M65,34 L65,48.2 L70,48.2 L75,48.2 L75,36" fill="none" stroke="black" stroke-width="0.3"/>
<path d="M25,24 L25,37.42 L30,37.42 L35,37.42 L35,24" fill="none" stroke="black" stroke-width="0.3"/>
<path d="M70,48.2 L70,63.14 L77.5,63.14 L85,63.14 L85,32" fill="none" stroke="black" stroke-width="0.3"/>
<path d="M77.5,63.14 L77.5,79.32 L86.25,79.32 L95,79.32 L95,45" fill="none" stroke="black" stroke-width="0.3"/>
<path d="M86.25,79.32 L86.25,96.4 L95.625,96.4 L105,96.4 L105,36" fill="none" stroke="black" stroke-width="0.3"/>
<path d="M30,37.42 L30,54.82 L37.5,54.82 L45,54.82 L45,22" fill="none" stroke="black" stroke-width="0.3"/>
<path d="M37.5,54.82 L37.5,75.58 L46.25,75.58 L55,75.58 L55,20" fill="none" stroke="black" stroke-width="0.3"/>
<path d="M135,51.5 L135,101.66 L140,101.66 L145,101.66 L145,80" fill="none" stroke="black" stroke-width="0.3"/>
<path d="M95.625,96.4 L95.625,118.06 L107.8125,118.06 L120,118.06 L120,23.6" fill="none" stroke="black" stroke-width="0.3"/>
<path d="M5,22 L5,49.8 L10,49.8 L15,49.8 L15,26" fill="none" stroke="black" stroke-width="0.3"/>
<path d="M107.8125,118.06 L107.8125,143.4 L123.90625,143.4 L140,143.4 L140,101.66" fill="none" stroke="black" stroke-width="0.3"/>
<path d="M123.90625,143.4 L123.90625,169.66 L139.45313,169.66 L155,169.66 L155,34" fill="none" stroke="black" stroke-width="0.3"/>
<path d="M10,49.8 L10,102.74 L28.125,102.74 L46.25,102.74 L46.25,75.58" fill="none" stroke="black" stroke-width="0.3"/>
<path d="M28.125,102.74 L28.125,196.82 L83.78906,196.82 L139.45313,196.82 L139.45313,169.66" fill="none" stroke="black" stroke-width="0.3"/>
<path d="M83.78906,196.82 L83.78906,226.12 L124.39453,226.12 L165,226.12 L165,41" fill="none" stroke="black" stroke-width="0.3"/>
</svg>